<svg width="536" height="100" viewBox="0 0 536 100" fill="none" xmlns="http://www.w3.org/2000/svg">
<path d="M229.252 84.9964H176.507V97.6379H229.252V84.9964Z" fill="white"/>
<path d="M14.8675 29.0216H0V97.141H14.8675V29.0216Z" fill="white"/>
<path d="M152.143 86.1159V98.4674C147.236 99.4828 143.133 100.001 139.834 100.001C131.713 100.001 125.411 98.0115 120.927 94.0325C116.444 90.0535 114.202 84.1264 114.202 76.2721V12.4424H129.218V30.3479H149.88V42.9688H129.197V75.0286C129.197 79.277 130.296 82.3027 132.517 84.1057C134.737 85.9087 138.206 86.8205 142.922 86.8205C144.55 86.8205 147.617 86.5926 152.143 86.1159Z" fill="white"/>
<path d="M389.261 69.0606V29.5194H403.98V70.1797C403.98 74.8012 405.439 78.5522 408.379 81.4121C411.298 84.272 415.083 85.7227 419.715 85.7227C424.156 85.7227 427.815 84.2927 430.691 81.4121C433.567 78.5522 435.005 74.8012 435.005 70.1797V29.5194H449.873V69.0606C449.873 78.0341 447.018 85.2875 441.308 90.8415C435.597 96.3955 428.407 99.1725 419.715 99.1725C410.832 99.1725 403.557 96.4162 397.847 90.9244C392.116 85.4118 389.261 78.1377 389.261 69.0606Z" fill="white"/>
<path d="M94.4287 57.061V96.6022H79.7093V55.9626C79.7093 51.3412 78.25 47.5902 75.3104 44.7303C72.3919 41.8497 68.6274 40.4197 63.9958 40.4197C59.5546 40.4197 55.8959 41.8497 53.0197 44.7303C50.1435 47.5902 48.7054 51.3412 48.7054 55.9626V96.6229H33.8379V57.061C33.8379 48.0876 36.693 40.8342 42.4031 35.2802C48.1132 29.7262 55.3038 26.9492 63.9958 26.9492C72.8783 26.9492 80.1534 29.7055 85.8635 35.1973C91.5737 40.7098 94.4287 48.0047 94.4287 57.061Z" fill="white"/>
<path d="M343.707 97.6389L376.53 29.5194H360.669L340.429 74.6146L320.021 29.5194H304.181L337.13 97.6389H343.707Z" fill="white"/>
<path d="M291.788 27.9854H283.603C274.911 27.9854 267.721 30.7624 262.011 36.3164C256.3 41.8704 253.445 49.1238 253.445 58.0972V97.6384H268.313V56.9988C268.313 52.3774 269.751 48.6264 272.627 45.7665C275.503 42.8859 279.162 41.4559 283.603 41.4559H283.624C283.667 41.4559 283.709 41.4559 283.73 41.4559H291.767V27.9854H291.788Z" fill="white"/>
<path d="M239.389 31.2464C239.389 22.3765 236.322 14.9367 230.189 8.96818C224.056 2.9997 216.4 0.0154564 207.264 0.0154564C197.451 -0.171059 188.949 3.26911 181.78 10.3567C174.61 17.4235 171.121 25.8789 171.311 35.6813C171.311 45.7531 174.906 54.2085 182.076 61.0059C189.245 67.8033 198.128 71.2021 208.702 71.2021C219.361 71.2021 228.624 67.5547 236.449 60.2391C231.669 53.0272 226.34 53.0479 222.597 54.9338C222.427 55.0167 222.258 55.1203 222.11 55.2032C222.068 55.2239 222.004 55.2447 221.962 55.2861C217.923 57.2963 213.651 58.3118 209.125 58.3118C203.182 58.3118 198.149 56.7161 194.046 53.5246C189.943 50.3331 187.405 45.9604 186.475 40.4063H238.289C239.008 36.9662 239.389 33.9198 239.389 31.2464ZM186.728 29.0289C187.87 23.9516 190.239 19.8897 193.877 16.8847C197.514 13.8797 201.786 12.3669 206.693 12.3669C211.705 12.3669 215.892 13.8797 219.297 16.8847C222.702 19.8897 224.436 23.9308 224.542 29.0289H186.728Z" fill="white"/>
<path d="M475.108 97.6493L527.853 97.6493L527.853 85.0077L475.108 85.0077L475.108 97.6493Z" fill="white"/>
<path d="M525.523 10.3484C518.353 3.28153 509.851 -0.179361 500.038 0.00715397C490.881 0.00715397 483.246 2.9914 477.092 8.95988C470.959 14.9284 467.893 22.3475 467.893 31.2381C467.893 33.9322 468.273 36.9786 469.035 40.398H520.849C519.897 45.9521 517.38 50.3248 513.278 53.5163C509.175 56.7078 504.141 58.3035 498.199 58.3035C493.694 58.3035 489.422 57.288 485.361 55.2778C485.319 55.2571 485.277 55.2364 485.213 55.1949C485.044 55.112 484.875 55.0084 484.706 54.9255C480.962 53.0396 475.633 53.0189 470.853 60.2308C478.7 67.5464 487.941 71.1938 498.6 71.1938C509.175 71.1938 518.057 67.7951 525.227 60.9976C532.396 54.2002 535.991 45.7655 535.991 35.673C536.203 25.8706 532.692 17.436 525.523 10.3484ZM482.76 29.0206C482.866 23.9433 484.6 19.8814 488.005 16.8764C491.41 13.8714 495.597 12.3586 500.61 12.3586C505.516 12.3586 509.788 13.8714 513.426 16.8764C517.063 19.8814 519.453 23.9225 520.574 29.0206H482.76Z" fill="white"/>
</svg>
