<?xml version="1.0" encoding="UTF-8"?>
<svg version="1.1" xmlns="http://www.w3.org/2000/svg" width="225" height="225">
<path d="M0 0 C74.25 0 148.5 0 225 0 C225 74.25 225 148.5 225 225 C150.75 225 76.5 225 0 225 C0 150.75 0 76.5 0 0 Z " fill="#000000" transform="translate(0,0)"/>
<path d="M0 0 C1.31049316 0.01135986 1.31049316 0.01135986 2.64746094 0.02294922 C13.49346388 0.29801445 22.06346236 3.15934914 30.1875 10.4375 C30.79207031 10.93894531 31.39664063 11.44039062 32.01953125 11.95703125 C38.48165289 17.74337547 43.7868129 26.77777797 44.31689453 35.58813477 C44.31858643 36.72206665 44.31858643 36.72206665 44.3203125 37.87890625 C44.32160156 38.70970703 44.32289063 39.54050781 44.32421875 40.39648438 C44.32035156 41.25564453 44.31648438 42.11480469 44.3125 43 C44.31636719 43.86302734 44.32023437 44.72605469 44.32421875 45.61523438 C44.32292969 46.44474609 44.32164062 47.27425781 44.3203125 48.12890625 C44.31918457 48.88373291 44.31805664 49.63855957 44.31689453 50.41625977 C44.1875 52.4375 44.1875 52.4375 43.1875 55.4375 C20.4175 55.4375 -2.3525 55.4375 -25.8125 55.4375 C-22.31808002 67.12385307 -22.31808002 67.12385307 -13.71875 74.78515625 C-5.04929542 79.29780145 5.09222116 79.99675738 14.546875 77.578125 C17.86253332 76.36764657 21.03230744 75.01509628 24.1875 73.4375 C29.29897647 72.70728908 32.22919895 74.27690924 36.453125 76.85546875 C38.60712898 78.82026968 39.28489664 80.69745409 40.1875 83.4375 C26.42178247 95.46027138 12.42405614 98.44863333 -5.32275391 97.65966797 C-15.27665872 96.77144936 -23.57909153 92.12525484 -30.8125 85.4375 C-31.50988281 84.84195313 -32.20726563 84.24640625 -32.92578125 83.6328125 C-40.56489914 76.69862263 -46.02267911 66.55119457 -47.03173828 56.18530273 C-47.51659923 46.13204577 -47.70279863 36.4946803 -42.8125 27.4375 C-42.06613281 26.04144531 -42.06613281 26.04144531 -41.3046875 24.6171875 C-34.69535738 13.33521468 -24.74535044 5.06969864 -12.28759766 1.05932617 C-8.18874049 0.02955805 -4.20885168 -0.05140707 0 0 Z " fill="#FBFBFB" transform="translate(113.8125,45.5625)"/>
<path d="M0 0 C23.1 0 46.2 0 70 0 C70 5.61 70 11.22 70 17 C46.9 17 23.8 17 0 17 C0 11.39 0 5.78 0 0 Z " fill="#00D100" transform="translate(78,162)"/>
<path d="M0 0 C5.00306113 3.36744499 8.22699311 7.23251289 10 13 C10 14.98 10 16.96 10 19 C-6.5 19 -23 19 -40 19 C-38.34169239 10.70846194 -34.03623998 4.71530905 -27 0 C-18.70273295 -4.66831373 -8.321215 -4.53551939 0 0 Z " fill="#010101" transform="translate(128,66)"/>
</svg>
